<?xml version="1.0" standalone="no"?>
<!DOCTYPE svg PUBLIC "-//W3C//DTD SVG 20010904//EN"
 "http://www.w3.org/TR/2001/REC-SVG-20010904/DTD/svg10.dtd">
<svg version="1.0" xmlns="http://www.w3.org/2000/svg"
 width="628.000000pt" height="628.000000pt" viewBox="0 0 628.000000 628.000000"
 preserveAspectRatio="xMidYMid meet">
<metadata>
Created by potrace 1.11, written by Peter Selinger 2001-2013
</metadata>
<g transform="translate(0.000000,628.000000) scale(0.100000,-0.100000)"
fill="#000000" stroke="none">
<path d="M902 6109 c-39 -19 -105 -100 -173 -209 -18 -30 -39 -61 -46 -68 -7
-8 -11 -17 -8 -22 3 -5 2 -10 -3 -12 -9 -4 -112 -177 -112 -189 0 -5 -4 -9
-10 -9 -5 0 -10 -5 -10 -11 0 -6 -9 -24 -21 -40 -11 -16 -17 -29 -13 -29 4 0
0 -8 -8 -17 -18 -21 -130 -238 -171 -332 -57 -131 -186 -508 -190 -553 -1 -10
-4 -18 -7 -18 -4 0 -7 -6 -7 -12 0 -7 -12 -65 -27 -128 -31 -128 -33 -137 -42
-194 -3 -22 -7 -43 -9 -46 -1 -3 -6 -30 -9 -61 -4 -31 -8 -66 -11 -77 -19 -98
-26 -569 -12 -722 11 -107 23 -202 32 -244 2 -12 7 -39 9 -61 7 -49 15 -94 22
-117 3 -9 7 -27 9 -40 9 -44 28 -123 36 -148 11 -35 30 -102 43 -160 5 -19 12
-41 16 -50 7 -14 28 -73 34 -95 4 -15 14 -40 64 -165 55 -139 161 -364 173
-368 5 -2 9 -10 9 -18 0 -7 16 -38 35 -68 19 -30 35 -57 35 -60 0 -13 154
-229 190 -267 8 -8 40 -44 70 -79 89 -103 222 -232 357 -347 11 -10 31 -25 44
-33 12 -8 36 -27 53 -41 38 -33 302 -209 312 -209 4 0 15 -6 23 -14 21 -18
149 -88 341 -185 189 -96 448 -204 580 -242 19 -6 42 -13 50 -16 8 -3 21 -7
29 -9 8 -1 35 -9 60 -18 57 -18 234 -63 281 -71 19 -3 42 -8 50 -10 8 -2 29
-7 45 -9 17 -3 41 -8 55 -11 50 -10 86 -15 130 -20 25 -3 61 -7 80 -10 110
-16 200 -20 420 -20 135 1 274 4 310 8 36 4 88 10 115 13 28 3 62 7 78 10 15
2 39 6 55 8 78 12 118 19 132 21 102 21 188 40 250 57 41 11 82 21 90 23 8 2
58 18 110 35 52 18 100 33 105 35 9 2 52 18 85 32 8 3 17 7 20 8 33 10 120 51
230 108 74 39 145 75 157 81 13 6 23 14 23 19 0 4 5 7 11 7 29 0 337 223 448
324 267 245 373 413 357 568 -10 93 -60 169 -217 329 -38 39 -69 74 -69 77 0
15 -80 93 -160 156 -47 37 -92 73 -100 79 -48 38 -166 122 -234 166 -75 49
-209 144 -232 166 -6 5 -26 21 -44 35 -35 26 -164 130 -190 153 -23 20 -187
157 -234 195 -40 33 -82 68 -174 147 -71 60 -532 427 -572 455 -19 13 -37 27
-40 30 -3 4 -32 26 -65 51 -33 24 -69 52 -79 62 -11 9 -23 17 -27 17 -4 0 -14
6 -21 13 -7 6 -101 78 -208 159 -107 81 -206 157 -220 170 -14 13 -34 30 -46
38 -12 8 -48 39 -81 67 -33 29 -73 63 -89 75 -16 12 -31 25 -34 28 -4 5 -138
119 -405 344 -33 28 -62 53 -65 56 -3 3 -32 28 -65 55 -33 28 -65 55 -71 60
-12 11 -84 73 -124 106 -125 104 -214 191 -460 450 -464 490 -661 679 -708
679 -5 0 -44 36 -88 80 -110 111 -176 137 -252 99z"/>
</g>
</svg>
